<svg version="1.1" xmlns="http://www.w3.org/2000/svg" style="display: block;" viewBox="0 0 2048 2048" width="1024" height="1024" preserveAspectRatio="none">
<path transform="translate(0,0)" fill="rgb(255,255,255)" d="M 0 0 L 2048 0 L 2048 2048 L 0 2048 L 0 0 z"/>
<path transform="translate(0,0)" fill="rgb(47,57,115)" d="M 970.051 543.344 C 999.856 542.849 1029.77 543.95 1059.58 544.142 C 1082.3 544.288 1105.66 543.157 1128.27 545.108 C 1140.58 555.243 1150.69 571.327 1161.05 583.541 C 1172.01 596.466 1184.76 608.656 1194.39 622.559 C 1194.19 615.262 1193.18 607.616 1196.6 600.926 C 1199.8 597.809 1204.67 597.446 1208.94 597.112 C 1218.7 596.348 1228.84 596.98 1238.63 596.959 C 1258.24 596.847 1277.84 596.843 1297.44 596.945 C 1311 597.067 1325.64 595.596 1339.02 597.138 C 1342.38 597.526 1346.52 598.387 1349.06 600.792 C 1351.61 603.198 1351.79 606.582 1352.07 609.915 C 1353.84 630.969 1352.58 653 1352.61 674.189 C 1352.57 717.121 1352.85 760.052 1353.45 802.979 C 1363.35 813.907 1372.33 825.821 1381.86 837.09 L 1452.24 920.449 L 1529.51 1011.26 C 1536.17 1019.11 1543.41 1026.49 1549.9 1034.48 C 1552.28 1037.4 1554.94 1040.6 1556.08 1044.25 C 1557.32 1048.24 1555.64 1051.64 1553.82 1055.05 C 1542.68 1063.83 1489.08 1058.92 1472.74 1058.96 L 1467.71 1265.53 C 1467.3 1278.52 1468.06 1320.1 1464.23 1330.42 C 1451.36 1339.62 1407.91 1350.91 1391.11 1356.16 C 1361.77 1365.65 1332.34 1374.89 1302.84 1383.88 L 1206.46 1414.93 C 1167.17 1427.4 1127.83 1439.49 1088.96 1453.26 C 1062.95 1461.8 1037.01 1470.58 1011.17 1479.62 C 993.728 1485.77 975.21 1493.88 957.133 1497.54 L 955.468 1497.86 C 951.376 1498.68 947.443 1497.73 943.454 1496.73 C 925.467 1492.25 907.844 1486.16 889.982 1481.18 C 846.168 1469.39 802.428 1457.34 758.764 1445.01 C 733.581 1438.14 708.444 1431.1 683.355 1423.89 C 663.296 1418.31 642.423 1413.95 623.591 1404.92 C 619.335 1390.43 621.86 1350.71 621.898 1333.92 L 621.87 1136.14 L 621.779 1085.37 C 621.85 1075.54 622.947 1065 621.607 1055.27 L 619.9 1054.72 C 619.499 1054.97 619.101 1055.23 618.696 1055.48 C 618.163 1055.81 617.618 1056.12 617.087 1056.45 C 615.509 1057.44 614.32 1058.06 612.444 1058.34 C 602.51 1059.82 547.966 1059.46 538.869 1057.68 C 535.561 1057.03 533.175 1055.61 531.394 1052.65 C 529.199 1049.01 528.669 1045.25 529.6 1041.12 C 542.743 1023.74 558.373 1007.79 572.881 991.53 C 600.988 959.722 629.311 928.105 657.845 896.679 L 880.732 642.687 C 891.874 629.893 962.365 546.509 970.051 543.344 z"/>
<path transform="translate(0,0)" fill="rgb(255,255,255)" d="M 979.298 665.974 C 985.61 672.406 991.284 679.826 997.355 686.536 L 1060.68 757.38 L 1234.17 948.839 C 1251.07 967.825 1268.47 986.389 1285.22 1005.5 C 1299.03 1021.26 1312.51 1038.35 1327.59 1052.87 C 1329.39 1054.61 1331.73 1057.05 1334.07 1057.9 C 1343.94 1061.46 1430.8 1059.36 1447.99 1059.14 C 1448.3 1106.6 1446.51 1154.31 1445.52 1201.77 C 1444.75 1238.55 1445.02 1275.55 1443.1 1312.29 C 1420.22 1322.26 1394.55 1329.56 1370.74 1337.17 L 1233.17 1380.26 L 1053.04 1439.14 C 1023.15 1449.04 993.418 1460.53 963.071 1468.89 L 962.878 1221.25 L 963.092 1129.46 C 963.123 1113.98 964.155 1097.88 962.819 1082.5 C 962.46 1078.37 961.679 1074.65 960.004 1070.84 C 956.034 1067.68 950.096 1066.11 945.309 1064.6 C 924.199 1057.91 733.996 1005.26 726.228 1006.22 C 720.728 1006.9 717.559 1011.59 714.367 1015.61 L 714.782 1406.59 C 691.972 1400.18 669.064 1394.13 646.066 1388.43 L 646.348 1182.92 L 645.999 1088.77 C 645.995 1068.38 645.624 1047.81 647.004 1027.46 C 664.66 1009.68 681.222 990.862 698.142 972.391 L 780.337 883.309 L 928.092 722.033 C 945.019 703.198 962.928 685.311 979.298 665.974 z"/>
<path transform="translate(0,0)" fill="rgb(47,57,115)" d="M 1142.61 1057.35 C 1157.26 1056.13 1171.59 1059.77 1183.15 1069.06 C 1196.31 1079.63 1205.86 1096.43 1209.71 1112.76 C 1213.07 1126.98 1212.18 1141.99 1212.13 1156.49 L 1211.94 1220.61 C 1211.91 1233.42 1211.21 1246.64 1212.59 1259.37 C 1212.64 1259.8 1212.69 1260.22 1212.74 1260.65 C 1217.47 1259.99 1223.94 1258.21 1228.46 1260.03 C 1231.47 1261.25 1233.72 1263.86 1234.93 1266.83 C 1236.13 1269.79 1236.29 1272.88 1234.78 1275.79 C 1232.97 1279.27 1229.73 1280.62 1226.31 1282.09 C 1209.31 1289.39 1190.02 1293.68 1172.29 1299.08 C 1147.21 1306.71 1122.28 1315.13 1097.39 1323.35 C 1084.72 1327.35 1037.98 1345.02 1027.28 1341.8 C 1024.35 1340.92 1021.95 1339 1020.81 1336.09 C 1019.71 1333.26 1019.93 1328.05 1021.44 1325.33 C 1025.45 1318.08 1044.59 1313.94 1052.24 1311.46 L 1052.36 1228.31 C 1052.2 1180.76 1048.54 1133.32 1079.37 1093.12 C 1094.8 1073.2 1117.59 1060.32 1142.61 1057.35 z"/>
<path transform="translate(0,0)" fill="rgb(255,255,255)" d="M 1121.89 1191.21 C 1124.74 1197.49 1122.46 1278.11 1121.95 1289.67 C 1107.52 1293.56 1093.39 1298.57 1079.24 1303.36 C 1075.96 1298.25 1077.74 1217.16 1077.75 1204.46 C 1091.97 1199.17 1107.31 1195.55 1121.89 1191.21 z"/>
<path transform="translate(0,0)" fill="rgb(255,255,255)" d="M 1185.61 1171.98 L 1186.82 1172.16 C 1189.38 1175.49 1187.99 1257.99 1187.99 1269.36 C 1174.98 1272.2 1162.36 1276.84 1149.32 1279.82 L 1148.23 1279.7 C 1147.83 1279.16 1147.26 1278.71 1147.02 1278.08 C 1145.67 1274.43 1147.31 1194.19 1147.37 1184.96 C 1159.93 1180.1 1172.8 1176.12 1185.61 1171.98 z"/>
<path transform="translate(0,0)" fill="rgb(255,255,255)" d="M 1121.52 1089.87 L 1122.27 1090.51 C 1124.37 1095.94 1123.55 1153.96 1123.52 1165.4 C 1108.42 1168.67 1093.94 1173.23 1079.23 1177.9 L 1078.13 1177.81 L 1077.13 1176.6 C 1077.48 1163.55 1079.25 1150.73 1083.51 1138.33 C 1090.1 1119.12 1102.83 1099.06 1121.52 1089.87 z"/>
<path transform="translate(0,0)" fill="rgb(255,255,255)" d="M 1146.26 1080.47 C 1149.5 1080.54 1152.85 1080.71 1156.02 1081.41 C 1165.39 1083.48 1173.18 1091.2 1178.28 1098.96 C 1187.06 1112.34 1191.49 1129.49 1188.27 1145.27 C 1186.3 1147.15 1184.23 1146.87 1181.59 1147.23 C 1169.8 1149.6 1159.06 1153.49 1147.84 1157.69 C 1145.44 1132.1 1148.33 1106.11 1146.26 1080.47 z"/>
<path transform="translate(0,0)" fill="rgb(47,57,115)" d="M 972.218 768.265 C 1031.29 761.64 1084.56 804.153 1091.19 863.227 C 1097.83 922.3 1055.33 975.572 996.255 982.22 C 937.165 988.871 883.876 946.354 877.237 887.264 C 870.598 828.173 913.126 774.892 972.218 768.265 z"/>
<path transform="translate(0,0)" fill="rgb(255,255,255)" d="M 971.413 793.172 C 1016.78 786.114 1059.28 817.145 1066.38 862.504 C 1073.48 907.863 1042.49 950.397 997.14 957.539 C 951.728 964.691 909.126 933.65 902.017 888.231 C 894.907 842.813 925.988 800.239 971.413 793.172 z"/>
<path transform="translate(0,0)" fill="rgb(229,125,52)" d="M 982.084 803.181 C 984.001 803.007 986.16 802.683 988.075 802.85 C 990.811 803.087 993.21 804.51 995.023 806.531 C 1002.75 815.143 999.416 847.334 999.361 859.511 C 1012.03 859.244 1039.52 855.486 1048.88 864.17 C 1051.79 866.866 1053.02 870.665 1053.04 874.56 C 1053.06 878.029 1052.05 881.313 1049.48 883.743 C 1040.69 892.071 1011.52 888.465 999.155 888.311 C 999.094 902.058 1000.85 916.386 999.731 930.024 C 999.078 937.972 997.591 942.243 991.517 947.45 C 990.73 947.592 989.938 947.715 989.143 947.803 C 984.962 948.262 981.564 948.47 978.177 945.463 C 968.625 936.981 971.346 901.844 970.972 888.781 C 957.348 888.886 943.728 889.069 930.158 887.699 C 928.493 886.665 926.776 885.619 925.262 884.372 C 922.495 882.093 919.756 878.51 919.856 874.745 C 919.953 871.073 922.514 866.609 925.13 864.115 C 933.926 855.732 958.745 859.559 970.823 859.749 C 971.313 846.298 967.854 822.642 972.869 810.907 C 974.797 806.395 977.735 805.037 982.084 803.181 z"/>
<path transform="translate(0,0)" fill="rgb(255,255,255)" d="M 740.078 1033.43 C 806.035 1051.6 872.416 1069.04 937.966 1088.64 L 938.241 1469.29 L 739.132 1414.29 L 739.094 1173.29 L 739.139 1088.44 C 739.175 1070.14 738.7 1051.68 740.078 1033.43 z"/>
<path transform="translate(0,0)" fill="rgb(229,125,52)" d="M 876.286 1236.06 C 884.028 1233.9 892.335 1236.09 898.006 1241.79 C 903.676 1247.48 905.826 1255.8 903.627 1263.53 C 901.428 1271.26 895.223 1277.21 887.402 1279.07 C 875.632 1281.86 863.785 1274.73 860.757 1263.02 C 857.729 1251.3 864.633 1239.32 876.286 1236.06 z"/>
<path transform="translate(0,0)" fill="rgb(255,255,255)" d="M 1003.95 569.022 C 1041.45 569.799 1079.05 568.791 1116.51 569.888 C 1127.16 580.808 1136.84 593.187 1146.81 604.763 C 1162.1 622.495 1178.13 640.228 1192.02 659.075 C 1192.63 678.59 1190.24 700.433 1193.56 719.553 C 1194.15 722.936 1195.45 725.446 1197.43 728.219 C 1208.41 743.558 1222.49 757.046 1234.71 771.438 C 1245.2 783.799 1262.59 810.681 1274.18 818.944 C 1293.93 818.662 1313.69 818.714 1333.44 819.101 C 1350.65 837.852 1366.71 857.748 1383.31 877.041 C 1414.91 913.233 1446.02 949.858 1476.62 986.903 C 1489.59 1002.61 1506.11 1017.47 1516.58 1034.83 C 1480.99 1035.15 1445.24 1034.75 1409.64 1034.62 C 1377.15 998.532 1345.18 961.976 1313.75 924.962 L 1213.76 810.561 C 1142.95 730.812 1073.01 650.294 1003.95 569.022 z"/>
<path transform="translate(0,0)" fill="rgb(255,255,255)" d="M 973.726 574.223 C 983.032 581.503 994.523 596.942 1002.77 606.253 C 1030.74 637.816 1058.1 669.966 1085.7 701.857 L 1275.92 918.867 C 1309.9 957.38 1342.98 997.049 1378.21 1034.41 C 1366.83 1034.96 1355.4 1034.82 1344.01 1034.88 C 1321.9 1015.77 1294.12 980.152 1273.62 957.218 L 1088.59 751.519 C 1066.88 726.787 1044.9 702.299 1022.65 678.06 C 1011.69 665.896 1001.19 652.92 989.438 641.533 C 985.974 638.174 983.185 636.216 978.6 634.683 C 975.142 635.893 972.869 637.047 970.299 639.701 C 951.497 659.122 933.763 679.987 915.599 700.022 L 845.101 776.496 L 611.495 1031.86 C 597.278 1032.03 583.059 1032 568.842 1031.78 C 587.862 1013.3 604.829 992.477 622.428 972.658 L 708.648 875.666 L 973.726 574.223 z"/>
<path transform="translate(0,0)" fill="rgb(255,255,255)" d="M 1244.53 621.509 L 1268.81 621.2 L 1268.79 662.857 L 1243.25 662.861 L 1217.72 662.804 L 1217.42 621.569 L 1244.53 621.509 z"/>
<path transform="translate(0,0)" fill="rgb(255,255,255)" d="M 1217.95 686.988 L 1268.73 687.12 L 1268.85 727.876 C 1255.68 727.865 1242.56 727.784 1229.4 727.123 C 1225.61 722.265 1221.31 717.697 1217.23 713.068 C 1217.89 704.432 1217.77 695.649 1217.95 686.988 z"/>
<path transform="translate(0,0)" fill="rgb(255,255,255)" d="M 1291.09 752.332 C 1303.73 752.246 1316.33 752.19 1328.96 752.674 L 1328.9 795.031 C 1316.28 795.022 1303.68 795.104 1291.08 794.321 C 1291 780.325 1291 766.328 1291.09 752.332 z"/>
<path transform="translate(0,0)" fill="rgb(255,255,255)" d="M 1292.14 622.032 L 1329.03 621.684 C 1328.98 635.162 1328.82 648.638 1328.54 662.113 C 1316.28 662.033 1304.01 662.102 1291.74 662.32 C 1291.67 648.889 1291.81 635.459 1292.14 622.032 z"/>
<path transform="translate(0,0)" fill="rgb(255,255,255)" d="M 1292.08 687.485 C 1304.04 687.123 1316.01 687.028 1327.97 687.203 C 1328.95 700.771 1328.92 714.393 1327.86 727.956 L 1292.07 727.914 L 1292.08 687.485 z"/>
<path transform="translate(0,0)" fill="rgb(255,255,255)" d="M 1248.36 752.148 C 1255.24 752.269 1262.11 752.476 1268.98 752.768 L 1269.02 777.25 C 1261.6 769.327 1256.01 759.761 1248.36 752.148 z"/>
<path transform="translate(0,0)" fill="rgb(47,57,115)" d="M 1073.09 93.3747 C 1074.04 93.2819 1074.99 93.2016 1075.95 93.1339 C 1100.85 91.4101 1126 102.131 1149.01 110.407 C 1205.56 130.42 1259.71 156.647 1310.47 188.605 C 1354.35 216.825 1395.22 249.481 1436.73 281.012 C 1476.31 311.073 1516.9 341.037 1554.39 373.642 C 1573.85 390.568 1601.79 415.072 1603.06 442.721 C 1603.38 449.722 1601.36 456.253 1596.4 461.313 C 1585.35 472.582 1565.64 472.863 1550.87 472.853 C 1542.57 481.286 1534.08 491.169 1522.86 495.71 C 1508.79 501.41 1492.62 498.746 1478.2 495.81 C 1454.34 490.952 1431.18 482.374 1408.18 474.538 C 1369.85 461.485 1332.02 447.662 1294.08 433.52 L 1219.13 405.745 C 1205.4 400.704 1191.43 396.234 1177.98 390.479 C 1168.2 405.247 1154.07 418.484 1138.8 427.457 C 1120.85 438.01 1101.8 444.985 1082.75 453.157 C 1055.34 464.692 1028.2 476.859 1001.35 489.646 C 899.549 539.411 798.293 590.28 697.598 642.242 C 546.913 724.109 462.112 691.127 302.575 678.077 C 280.127 676.353 257.651 675.005 235.157 674.034 C 220.507 673.42 199.548 675.366 185.775 670.952 C 182.765 669.987 181.483 667.636 180.104 664.966 C 172.919 651.052 169.565 630.105 165.049 614.667 C 151.527 569.602 139.033 524.235 127.576 478.601 C 121.93 456.63 115.417 434.217 111.342 411.911 C 110.441 406.981 109.808 402.088 111.299 397.23 C 114.656 393.749 117.246 391.513 122.231 391.056 C 141.188 389.315 165.412 390.547 185.158 389.863 C 242.015 387.894 301.216 384.193 356.994 373.083 C 377.734 368.951 398 362.323 418.233 356.239 C 463.767 342.547 508.693 327.05 553.951 312.509 L 635.409 286.575 C 653.289 280.983 672.153 276.095 689.288 268.512 C 723.81 253.234 757.555 235.402 791.412 218.677 L 918.771 156.59 C 968.378 132.444 1017.26 100.55 1073.09 93.3747 z"/>
<path transform="translate(0,0)" fill="rgb(255,255,255)" d="M 1073.64 118.373 C 1081.73 117.637 1089.87 118.062 1097.84 119.635 C 1115.56 123.121 1133.09 130.265 1149.88 136.805 C 1183.65 149.754 1216.61 164.709 1248.59 181.592 C 1271.42 193.921 1293.72 207.739 1315.48 221.866 C 1353.44 246.504 1388.04 275.687 1423.85 303.233 C 1447.55 321.464 1574.18 411.921 1577.09 437.56 C 1577.35 439.809 1577.04 441.967 1575.36 443.599 C 1569.74 449.052 1557.58 447.936 1550.31 448.065 C 1539.37 430.949 1525.87 415.611 1510.28 402.587 C 1490.98 386.544 1469.08 373.134 1448.08 359.429 L 1357.92 301.109 C 1313.68 272.703 1271.8 238.826 1222.8 218.771 C 1200.49 209.641 1082.82 167.065 1065.94 176.225 C 1063.83 177.37 1062.34 178.742 1061.86 181.171 C 1060.98 185.595 1063.71 191.886 1066.97 194.891 C 1071.72 199.27 1112.57 207.539 1122.22 210.503 C 1160.43 222.242 1199.72 234.594 1235.45 252.667 C 1255.83 262.981 1274.61 276.385 1293.57 289.059 L 1358.99 332.211 C 1400.65 359.635 1444.15 384.309 1483.93 414.512 C 1496.47 424.034 1513.08 437.279 1521.93 450.555 C 1524.12 453.843 1527.2 459.046 1525.75 463.153 C 1524.62 466.333 1521.13 468.148 1518.24 469.399 C 1510.96 472.557 1503.91 473.167 1496.09 472.335 C 1454.1 467.864 1398.89 445.638 1358.6 430.669 L 1188.59 366.057 C 1190.91 351.692 1192.32 338.616 1188.47 324.377 C 1183.59 306.275 1172.06 292.109 1155.77 283.014 C 1137.9 273.035 1116.27 269.658 1096.11 272.936 C 1059.21 278.935 1003.14 305.449 966.757 320.231 C 891.681 350.734 816.259 382.741 738.175 404.819 C 734.418 405.895 730.323 406.934 727.379 409.637 C 724.4 412.372 722.035 416.404 722.346 420.575 C 722.548 423.291 723.907 425.71 725.916 427.493 C 729.41 430.592 734.047 431.213 738.552 430.786 C 751.997 429.513 786.783 416.031 801.135 411.001 C 840.728 397.36 879.953 382.673 918.768 366.954 L 1005.58 331.664 C 1038.89 318.229 1075.92 299.231 1112.02 297.347 C 1126.88 296.571 1143.45 302.119 1154.27 312.331 C 1162.87 320.448 1168.43 331.45 1168.28 343.409 C 1168.04 362.918 1155.73 380.353 1141.97 393.161 C 1132.47 402.01 1121.32 409.041 1109.74 414.828 C 1083.81 427.782 1055.65 436.792 1029.24 448.823 C 973.195 474.346 918.199 502.399 862.995 529.674 C 809.003 556.351 755.688 584.721 701.925 611.906 C 679.727 623.129 657.699 635.691 634.823 645.429 C 607.637 657.261 578.914 665.188 549.507 668.973 C 487.498 676.592 424.282 665.204 362.608 659.129 C 308.956 653.635 255.13 649.986 201.227 648.189 C 190.08 616.643 182.027 583.514 173.006 551.289 C 160.371 506.155 147.044 460.826 137.193 414.996 C 162.673 412.837 188.738 413.542 214.321 412.699 C 253.072 411.422 292.7 408.453 331.117 403.203 C 371.939 397.625 411.365 384.587 450.502 372.128 C 489.699 359.679 528.83 347.024 567.894 334.164 C 611.823 319.796 659.272 307.87 701.616 289.592 C 728.846 277.838 755.498 264.026 782.151 251.007 L 924.995 180.894 C 967.745 159.903 1027.04 123.923 1073.64 118.373 z"/>
<path transform="translate(0,0)" fill="rgb(47,57,115)" d="M 1108.98 312.431 C 1118.7 312.603 1127.18 314.155 1135.21 320.05 C 1143.22 325.924 1147.8 334.513 1148.91 344.321 C 1150.22 355.84 1146.37 365.825 1139.36 374.85 C 1124.39 394.124 1097.68 403.895 1074.25 406.812 C 1064.9 407.297 1055.05 404.017 1047.68 398.272 C 1039.36 391.797 1034.76 382.196 1033.76 371.802 C 1032.62 359.867 1036.07 348.865 1043.96 339.825 C 1059.38 322.156 1086.31 313.821 1108.98 312.431 z"/>
<path transform="translate(0,0)" fill="rgb(255,255,255)" d="M 1101.55 325.264 C 1106.16 324.876 1110.97 324.394 1115.57 325.116 C 1124.97 326.594 1131.39 332.313 1136.7 339.839 C 1137.75 348.234 1137.91 355.026 1133.58 362.703 C 1124.24 379.252 1099.11 388.165 1081.83 392.822 L 1080.26 392.986 C 1071.98 393.922 1064.75 393.11 1057.44 388.696 C 1051.94 385.371 1048.19 380.322 1046.74 374.04 C 1044.98 366.402 1046.64 358.823 1051.05 352.393 C 1061.62 336.951 1083.77 328.271 1101.55 325.264 z"/>
<path transform="translate(0,0)" fill="rgb(47,57,115)" d="M 1516.2 1363.42 C 1549.56 1359.15 1601.08 1368.26 1634.18 1373.46 C 1656.99 1376.96 1679.81 1380.31 1702.65 1383.54 C 1738.49 1388.44 1774.75 1390.36 1810.86 1391.94 C 1823.7 1392.5 1848.83 1391.67 1860.05 1395.13 C 1864.14 1396.39 1866.63 1399.49 1868.46 1403.24 C 1873.41 1413.37 1875.41 1427.5 1878.56 1438.5 C 1890.14 1479.46 1901.16 1520.58 1911.61 1561.85 C 1919.65 1592.88 1930.42 1623.7 1937.01 1655.06 C 1937.8 1658.85 1938.39 1663.37 1936.62 1667.02 C 1935.15 1670.03 1933.06 1672.43 1929.58 1672.86 C 1912.72 1674.95 1891.74 1674.16 1874.28 1674.86 C 1808.48 1677.5 1733.13 1677.9 1669.77 1695.39 C 1612.2 1711.28 1555.46 1731.31 1498.28 1748.67 C 1469.81 1757.02 1441.4 1765.57 1413.05 1774.32 C 1396.95 1779.29 1380.17 1783.78 1364.73 1790.53 C 1334.36 1803.8 1305.28 1819.05 1275.85 1834.21 C 1203.81 1871.33 1129.11 1913 1054.33 1943.77 C 1033.99 1952.13 1009.74 1964.14 988.177 1968.09 C 977.455 1970.06 965.634 1969.95 954.887 1968.2 C 918.033 1962.21 860.141 1936.1 824.741 1921.36 C 787.711 1904.89 750.856 1886.26 717.009 1863.89 C 690.404 1846.31 666.135 1826.42 641.226 1806.63 L 583.096 1761.36 C 545.815 1732.22 505.623 1703.23 472.786 1669.15 C 462.012 1657.96 450.265 1642.91 451.008 1626.45 C 451.375 1618.32 455.688 1610.91 461.679 1605.55 C 473.764 1594.73 489.945 1596.41 504.875 1597.16 C 506.413 1593.84 507.922 1590.2 510.303 1587.38 C 521.891 1573.68 542.786 1571.93 559.495 1572.95 C 579.04 1574.14 598.15 1579.76 616.937 1584.95 C 654.011 1595.19 689.774 1607.51 726.011 1620.24 C 761.249 1632.62 796.632 1644.64 831.713 1657.47 C 837.276 1659.5 866.317 1671.69 870.301 1670.42 C 875.081 1668.9 883.222 1657.75 887.528 1654.02 C 898.218 1644.75 910.888 1637.07 923.715 1631.18 C 941.157 1623.16 959.371 1618.03 977.404 1611.65 C 992.948 1606.08 1008.15 1599.6 1022.93 1592.24 C 1060.37 1573.54 1096.37 1552.11 1133.47 1532.79 C 1186.08 1505.39 1239.74 1479.97 1292.2 1452.27 C 1312.58 1441.51 1333.18 1431.15 1353.42 1420.15 C 1380.28 1405.55 1406.36 1390.36 1435.16 1379.76 C 1461.36 1370.12 1488.54 1365.86 1516.2 1363.42 z"/>
<path transform="translate(0,0)" fill="rgb(255,255,255)" d="M 1516.74 1387.41 C 1544.67 1383.06 1582.06 1390.06 1610.15 1394.38 C 1646.13 1399.91 1682.09 1406.71 1718.34 1410.21 C 1747.67 1413.05 1777.29 1414.01 1806.72 1415.51 C 1820.42 1416.21 1834.35 1416.44 1847.97 1418.16 C 1852.95 1442.49 1861.6 1466.85 1868.04 1490.92 L 1909.96 1648.56 C 1845.19 1654.13 1780.23 1652.19 1715.61 1661.2 C 1688.04 1665.04 1662.19 1672.49 1635.56 1680.28 C 1599.99 1690.69 1564.81 1702.15 1529.36 1712.91 L 1425.33 1744.84 C 1402.19 1751.93 1378.74 1758.19 1356.24 1767.2 C 1338.59 1774.26 1321.94 1783.22 1305 1791.77 C 1286.09 1801.07 1267.29 1810.62 1248.62 1820.4 C 1180.66 1855.78 1113.04 1892.22 1042.33 1921.92 C 1021.05 1930.86 997.254 1942.7 973.978 1944.48 C 950.35 1946.29 916.233 1930.99 894.277 1922.41 C 847.37 1904.07 798.478 1884 755.025 1858.56 C 711.162 1832.88 670.84 1799.17 630.975 1767.77 C 588.05 1733.96 544.574 1700.35 503.102 1664.76 C 494.686 1657.54 474.46 1641.29 474.801 1629.09 C 474.869 1626.66 476.066 1624.52 478.085 1623.17 C 485.321 1618.31 498.18 1621.83 506.258 1623.12 C 514.27 1636.72 522.782 1649.4 534.723 1659.87 C 576.373 1696.42 627.417 1722.86 674.448 1751.8 C 735.055 1789.1 792.327 1832.06 860.261 1855.79 C 877.081 1861.67 969.475 1891.09 979.942 1884.42 C 983.66 1882.05 984.617 1877.61 985.65 1873.64 C 985.293 1871.32 985.005 1868.82 983.815 1866.75 C 982.527 1864.52 980.63 1863.18 978.293 1862.26 C 970.671 1859.25 961.535 1858.15 953.527 1856.39 C 942.077 1853.83 930.683 1851.03 919.352 1847.99 C 879.925 1837 841.697 1822.09 805.241 1803.48 C 765.234 1783.3 729.348 1756.46 691.452 1732.84 C 651.682 1708.05 609.178 1685.87 571.704 1657.67 C 559.029 1648.13 538.066 1630.33 530.48 1616.37 C 528.777 1613.23 527.412 1609.29 528.884 1605.79 C 529.849 1603.49 531.868 1601.9 534.044 1600.83 C 547.355 1594.32 571.86 1599.23 585.723 1602.15 C 624.737 1610.36 662.937 1624.78 700.595 1637.68 C 754.345 1656.1 808.424 1674.63 861.49 1694.93 C 859.753 1701.79 858.056 1708.72 857.675 1715.81 C 856.541 1736.93 864.87 1760.11 879.109 1775.75 C 892.911 1790.92 911.525 1797.87 931.774 1798.58 C 952.999 1799.32 974.235 1791.84 993.976 1784.75 C 1057.77 1761.82 1117.59 1730.38 1179.75 1703.72 C 1196.48 1696.55 1213.72 1690.5 1230.79 1684.21 C 1248.23 1677.78 1265.56 1671.14 1283.33 1665.66 C 1292.74 1662.76 1302.88 1661.1 1312.08 1657.89 C 1314.52 1657.04 1316.59 1655.6 1318.42 1653.79 C 1320.99 1651.22 1323.44 1647.1 1323.16 1643.31 C 1322.95 1640.5 1322.15 1638.6 1320.02 1636.73 C 1316.89 1633.99 1312.22 1633.8 1308.32 1634.17 C 1283.18 1636.58 1199.9 1668.2 1173.32 1679.35 C 1114.66 1703.95 1058.34 1733.68 998.616 1755.97 C 981.903 1762.2 964.573 1769.33 946.851 1771.92 C 930.987 1774.23 914.768 1772.4 901.706 1762.24 C 890.242 1753.33 883.871 1739.01 882.223 1724.81 C 880.426 1709.33 885.026 1695.75 894.722 1683.73 C 918.375 1654.39 956.388 1645.43 990.075 1633.09 C 1004.33 1627.77 1018.32 1621.76 1031.99 1615.08 C 1074.66 1594.4 1115.17 1570.16 1157.2 1548.32 C 1215.22 1518.18 1274.35 1490.24 1332.42 1460.14 C 1364.36 1443.59 1394.52 1423.39 1427.59 1409.03 C 1455.81 1396.78 1486.3 1390.7 1516.74 1387.41 z"/>
<path transform="translate(0,0)" fill="rgb(47,57,115)" d="M 971.294 1662.25 C 979.884 1662.04 988.549 1663.6 996.219 1667.58 C 1005.76 1672.44 1012.85 1681.04 1015.81 1691.33 C 1018.91 1702.21 1017.08 1714.63 1011.36 1724.34 C 999.322 1744.75 965.995 1752.84 944.268 1758.32 C 935.528 1759.53 926.906 1758.11 919.153 1753.83 C 909.235 1748.34 901.511 1738.48 898.762 1727.47 C 896.122 1717 897.854 1705.9 903.559 1696.73 C 906.695 1691.57 910.909 1687.14 915.913 1683.76 C 928.227 1675.3 956.437 1665.75 971.294 1662.25 z"/>
<path transform="translate(0,0)" fill="rgb(255,255,255)" d="M 976.584 1674.21 C 981.388 1673.75 986.621 1675.65 990.722 1678.05 C 997.632 1682.1 1002.57 1688.82 1004.39 1696.62 C 1006.29 1704.67 1004.69 1713.15 999.988 1719.95 C 997.163 1724.04 993.415 1727.25 989.15 1729.77 C 978.979 1735.78 950.867 1745.54 939.097 1747.68 C 933.117 1747.88 927.135 1745.53 922.288 1742.16 C 915.662 1737.54 911.187 1730.43 909.883 1722.46 C 908.725 1714.78 910.659 1706.95 915.262 1700.69 C 923.922 1688.94 961.777 1676.81 976.584 1674.21 z"/>
<path transform="translate(0,0)" fill="rgb(47,57,115)" d="M 1740.57 973.668 C 1747.3 976.614 1754.38 987.525 1760.19 992.717 C 1765.74 997.672 1771.94 1002.3 1777.98 1006.65 C 1805.73 1026.65 1835.02 1037.69 1868.33 1043.94 C 1877.88 1045.73 1888.08 1046.43 1897.4 1049.03 C 1898.97 1049.47 1902.37 1050.13 1903.04 1051.79 C 1905.42 1057.73 1902.7 1069.82 1901.92 1076.39 C 1896.36 1123.66 1886.72 1169.37 1867.74 1213.22 C 1842.49 1271.51 1803.3 1326.58 1742.35 1350.73 C 1742.03 1350.77 1741.71 1350.88 1741.39 1350.85 C 1729.2 1349.78 1692.69 1321.85 1683.75 1313.28 C 1625.74 1257.71 1594.58 1175.02 1584.08 1096.59 C 1582.31 1083.43 1580.19 1069.38 1580.16 1056.11 C 1580.16 1054.1 1580.04 1050.83 1581.86 1049.57 C 1588.59 1044.91 1608.02 1044.96 1617.07 1043.46 C 1623.11 1042.46 1629.1 1040.8 1635.02 1039.21 C 1678.58 1027.48 1709.59 1005.53 1740.57 973.668 z"/>
<path transform="translate(0,0)" fill="rgb(255,255,255)" d="M 1739.33 992.772 C 1751.41 1000.09 1760.78 1011.86 1772.73 1019.65 C 1797.9 1036.07 1825.83 1047.82 1855.17 1054.34 C 1866.78 1056.89 1878.69 1058.2 1890.2 1061.2 L 1891.35 1061.51 C 1888.78 1074.99 1887.64 1088.89 1885.49 1102.47 C 1881.83 1124.86 1876.86 1147.01 1870.62 1168.81 C 1849.29 1241.74 1811.92 1299.99 1744.07 1337.22 C 1731.97 1336.82 1707.78 1316.91 1698.79 1309.5 C 1627.72 1251 1601.25 1145.93 1592.73 1058.17 C 1648.16 1055.9 1700.62 1032.5 1739.33 992.772 z"/>
<path transform="translate(0,0)" fill="rgb(229,125,52)" d="M 1738.78 1023.83 C 1772.96 1056.04 1818.33 1077.73 1865.26 1081.02 C 1865.11 1083.5 1864.88 1085.98 1864.57 1088.45 C 1857.07 1148.03 1832.18 1224.69 1792.1 1270.25 C 1778.28 1285.95 1760.96 1298.61 1744.57 1311.49 C 1743.49 1312.04 1742.6 1312.76 1741.33 1312.69 C 1735.4 1312.33 1714.31 1293.21 1709.19 1288.4 C 1664.45 1246.38 1638.68 1186.86 1626.46 1127.71 C 1623.12 1111.54 1620.31 1095.79 1619.79 1079.22 C 1663.09 1075.79 1709.67 1056.95 1738.78 1023.83 z"/>
<path transform="translate(0,0)" fill="rgb(255,255,255)" d="M 1739.89 1036.08 C 1749.2 1042.02 1757.68 1049.64 1766.84 1055.92 C 1794.59 1074.95 1823 1083.47 1855.75 1089.4 C 1839.92 1174.87 1817.98 1246.28 1744.32 1300.27 L 1741.51 1301.12 C 1736.62 1299.95 1732.25 1296.28 1728.44 1293.08 C 1678.09 1250.66 1652.27 1200.39 1637.67 1136.9 C 1633.84 1120.22 1630.11 1103.44 1628.57 1086.37 C 1656.2 1085.32 1689.38 1072.09 1712.4 1057.21 C 1722.08 1050.95 1730.92 1043.3 1739.89 1036.08 z"/>
<path transform="translate(0,0)" fill="rgb(229,125,52)" d="M 1692.06 1125.22 C 1695.96 1124.88 1700.2 1124.67 1704.07 1125.31 C 1721.24 1128.15 1732.11 1144.03 1741.21 1157.29 C 1744.55 1152.05 1748.08 1146.94 1751.82 1141.97 C 1758.68 1132.99 1767.09 1126.6 1778.62 1125.26 C 1786.96 1124.29 1796.2 1126.04 1802.82 1131.46 C 1808.31 1135.96 1811.26 1142.35 1811.75 1149.37 C 1813.14 1168.95 1795.31 1188.03 1783.44 1201.88 C 1770.1 1215.93 1755.91 1230.17 1740.29 1241.69 C 1720.53 1223.55 1675.99 1183.53 1670.78 1158.22 C 1668.93 1149.22 1670.82 1141.66 1675.93 1134.14 C 1680.06 1128.06 1685.08 1126.47 1692.06 1125.22 z"/>
<path transform="translate(0,0)" fill="rgb(47,57,115)" d="M 307.539 735.886 C 307.976 735.876 308.413 735.854 308.85 735.857 C 309.91 735.866 312.322 735.946 313.253 736.554 C 318.177 739.771 327.319 752.16 332.147 756.972 C 367.321 792.027 422.248 809.398 470.972 809.277 C 471.605 819.526 469.741 830.179 468.389 840.326 C 461.224 894.103 446.501 949.88 422.675 998.738 C 400.229 1044.77 361.207 1089.85 311.638 1106.88 C 297.624 1107.05 263.868 1082.14 253.081 1072.51 C 201.892 1026.81 176.959 967.081 161.366 901.657 C 155.383 876.555 150.362 850.009 149.107 824.205 C 148.679 815.423 148.572 810.558 158.207 809.276 C 167.609 808.024 177.143 807.956 186.527 806.368 C 218.664 800.93 253.922 786.299 278.924 765.165 C 289.376 756.331 298.415 746.042 307.539 735.886 z"/>
<path transform="translate(0,0)" fill="rgb(255,255,255)" d="M 309.596 752.709 C 319.032 759.157 327 769.402 336.229 776.555 C 370.285 802.955 414.161 819.491 457.286 821.149 C 455.278 861.716 443.268 913.608 429.245 951.908 C 410.785 1002.32 383.47 1051.43 336.779 1080.8 C 328.708 1085.88 319.955 1089.78 311.324 1093.79 C 290.358 1086.35 272.485 1073.82 256.097 1058.94 C 195.267 1003.68 165.809 902.227 161.655 822.212 C 221.413 816.115 268.081 796.706 309.596 752.709 z"/>
<path transform="translate(0,0)" fill="rgb(229,125,52)" d="M 308.09 785.565 C 316.385 789.373 324.704 799.365 332.312 804.871 C 363.533 827.467 395.037 836.361 433.156 839.054 C 432.814 860.774 426.586 884.627 421.027 905.604 C 403.599 971.379 371.316 1035.83 310.556 1071.04 C 304.211 1069.1 296.984 1062.17 291.669 1058.1 C 221.859 1004.67 196.807 923.727 185.692 840.152 C 195.212 838.909 204.777 838.386 214.244 836.66 C 250.965 829.961 281.857 811.683 308.09 785.565 z"/>
<path transform="translate(0,0)" fill="rgb(255,255,255)" d="M 308.891 796.746 C 347.155 829.537 373.124 841.381 423.449 847.466 C 421.822 860.06 420.164 872.669 417.508 885.095 C 402.807 953.874 371.299 1021.06 310.566 1060.33 C 304.922 1056.6 299.473 1052.48 294.116 1048.35 C 243.569 1009.34 218.739 955.706 204.428 895.009 C 200.701 879.204 197.099 863.316 195.013 847.2 C 238.457 843.834 277.284 826.803 308.891 796.746 z"/>
<path transform="translate(0,0)" fill="rgb(229,125,52)" d="M 347.202 892.28 C 349.364 892.187 351.528 892.197 353.689 892.31 C 360.257 892.686 365.794 895.542 369.961 900.625 C 374.073 905.644 375.683 911.603 374.977 918.03 C 372.797 937.864 327.415 978.622 310.577 991.661 C 299.708 982.512 290.193 970.904 280.688 960.374 C 275.772 954.935 270.648 949.716 265.593 944.408 C 257.799 936.224 249.214 927.142 249.867 914.958 C 250.184 908.991 252.949 903.42 257.508 899.558 C 262.291 895.462 268.515 893.452 274.79 893.975 C 292.768 895.384 300.973 912.931 311.542 925.062 C 321.542 910.884 329.858 898.034 347.202 892.28 z"/>
<path transform="translate(0,0)" fill="rgb(47,57,115)" d="M 1647.88 520.368 C 1675.89 517.185 1706.76 526.572 1731.44 539.145 C 1736.13 541.536 1741.51 543.781 1745.63 547.102 C 1748.72 549.594 1750.56 552.399 1750.75 556.424 C 1750.9 559.768 1748.81 563.859 1746.38 566.047 C 1738.9 572.77 1725.04 565.59 1716.24 564.847 C 1689.65 562.601 1662.94 574.721 1643.08 591.858 C 1642.74 592.151 1642.41 592.451 1642.08 592.747 C 1639.27 600.499 1637.46 608.453 1635.91 616.534 C 1669.11 649.028 1701.39 682.45 1734.47 715.061 C 1754.7 734.998 1778.42 753.879 1795.5 776.615 C 1800.91 783.825 1805.36 792.165 1805.52 801.373 C 1805.81 817.573 1796.98 831.606 1786.18 842.914 C 1774.75 854.877 1750.03 880.091 1733.16 880.058 C 1727.69 880.047 1723.77 878.243 1719.28 875.299 C 1706.27 866.777 1695.34 853.917 1684.32 842.966 L 1630.33 789.01 L 1552.95 712.412 C 1518.86 736.048 1495.97 773.353 1483.52 812.524 C 1481.97 817.39 1479.3 823.672 1474.01 825.528 C 1471.88 826.276 1470.07 825.775 1468.2 824.69 C 1459.82 819.837 1454.75 798.309 1452.81 789.495 C 1440.51 733.532 1464.01 682.933 1493.66 636.984 C 1486.95 630.068 1453.26 600.015 1453.02 593.025 C 1452.8 586.561 1458.72 579.744 1462.96 575.384 C 1469.6 568.553 1476.79 562.219 1483.56 555.513 C 1491.72 547.437 1500.28 536.88 1509.82 530.583 C 1513.05 528.447 1515.97 527.201 1519.84 527.128 C 1529.7 531.371 1550.99 555.486 1559.73 564.222 C 1592.89 543.044 1606.16 525.603 1647.88 520.368 z"/>
<path transform="translate(0,0)" fill="rgb(255,255,255)" d="M 1625.71 639.357 C 1631.07 644.45 1635.94 649.811 1640.8 655.387 C 1645.03 659.113 1649.44 662.692 1653.02 667.068 C 1658.72 672.62 1664.57 678.08 1670.09 683.811 C 1673.89 687.75 1677.67 691.715 1681.42 695.704 C 1688.03 701.318 1693.72 707.685 1699.57 714.052 C 1703.04 717.518 1706.65 720.895 1709.7 724.734 C 1715.89 730.439 1721.94 736.292 1727.85 742.286 C 1712.77 752.787 1684.33 783.161 1673.41 798.319 C 1666.81 792.443 1660.46 786.347 1654.11 780.193 C 1650.57 777.055 1647.42 773.283 1644.18 769.817 C 1638.07 764.2 1632.32 758.173 1626.49 752.273 C 1622.44 748.641 1618.66 744.447 1614.81 740.585 C 1609.25 735.76 1604.09 730.389 1598.84 725.23 C 1594.38 720.461 1589.7 715.886 1585.21 711.142 C 1581.87 707.151 1578.49 703.203 1575.05 699.3 C 1599.45 678.798 1609.81 666.766 1625.71 639.357 z"/>
<path transform="translate(0,0)" fill="rgb(255,255,255)" d="M 1681.42 695.704 C 1688.03 701.318 1693.72 707.685 1699.57 714.052 C 1703.04 717.518 1706.65 720.895 1709.7 724.734 C 1715.89 730.439 1721.94 736.292 1727.85 742.286 C 1712.77 752.787 1684.33 783.161 1673.41 798.319 C 1666.81 792.443 1660.46 786.347 1654.11 780.193 C 1650.57 777.055 1647.42 773.283 1644.18 769.817 C 1638.07 764.2 1632.32 758.173 1626.49 752.273 C 1641.49 735.734 1670.84 713.281 1681.42 695.704 z"/>
<path transform="translate(0,0)" fill="rgb(255,255,255)" d="M 1709.7 724.734 C 1715.89 730.439 1721.94 736.292 1727.85 742.286 C 1712.77 752.787 1684.33 783.161 1673.41 798.319 C 1666.81 792.443 1660.46 786.347 1654.11 780.193 C 1670.56 766.657 1696.79 741.255 1709.7 724.734 z"/>
<path transform="translate(0,0)" fill="rgb(229,125,52)" d="M 1699.57 714.052 C 1703.04 717.518 1706.65 720.895 1709.7 724.734 C 1696.79 741.255 1670.56 766.657 1654.11 780.193 C 1650.57 777.055 1647.42 773.283 1644.18 769.817 C 1655.63 754.559 1684.03 724.546 1699.57 714.052 z"/>
<path transform="translate(0,0)" fill="rgb(229,125,52)" d="M 1625.71 639.357 C 1631.07 644.45 1635.94 649.811 1640.8 655.387 C 1645.03 659.113 1649.44 662.692 1653.02 667.068 C 1638.94 684.938 1609.29 708.582 1598.84 725.23 C 1594.38 720.461 1589.7 715.886 1585.21 711.142 C 1581.87 707.151 1578.49 703.203 1575.05 699.3 C 1599.45 678.798 1609.81 666.766 1625.71 639.357 z"/>
<path transform="translate(0,0)" fill="rgb(255,255,255)" d="M 1625.71 639.357 C 1631.07 644.45 1635.94 649.811 1640.8 655.387 C 1625.27 674.714 1604.26 695.245 1585.21 711.142 C 1581.87 707.151 1578.49 703.203 1575.05 699.3 C 1599.45 678.798 1609.81 666.766 1625.71 639.357 z"/>
<path transform="translate(0,0)" fill="rgb(229,125,52)" d="M 1670.09 683.811 C 1673.89 687.75 1677.67 691.715 1681.42 695.704 C 1670.84 713.281 1641.49 735.734 1626.49 752.273 C 1622.44 748.641 1618.66 744.447 1614.81 740.585 C 1629.67 723.566 1652.81 697.927 1670.09 683.811 z"/>
<path transform="translate(0,0)" fill="rgb(255,255,255)" d="M 1652.25 545.36 C 1659.5 544.414 1667 544.954 1674.3 545.146 C 1657.15 553.679 1636.05 562.265 1623.09 576.738 C 1613.65 587.281 1612.71 606.105 1608.02 619.222 C 1603.36 632.235 1596.66 643.706 1588.1 654.527 C 1572.37 674.395 1550.38 684.483 1530.09 698.559 C 1508.68 713.421 1494.05 732.443 1480.76 754.503 C 1478.37 759.21 1476.15 764.038 1473.86 768.796 C 1473.91 757.165 1474.18 745.315 1476.39 733.863 C 1482.59 701.719 1501.65 667.293 1521.34 641.674 C 1543.63 612.683 1585.97 571.302 1618.75 555.194 C 1629.55 549.889 1640.36 546.938 1652.25 545.36 z"/>
<path transform="translate(0,0)" fill="rgb(255,255,255)" d="M 1727.85 742.286 C 1732.06 745.394 1736.48 749.446 1739.61 753.669 C 1745.44 759.401 1751.44 765.119 1756.71 771.377 C 1760.37 774.978 1764.52 778.573 1767.82 782.488 C 1774.45 787.95 1782.73 793.426 1783.76 802.688 C 1784.36 808.153 1780.44 812.921 1777.11 816.89 C 1769.21 826.329 1744.87 852.557 1733.26 854.707 C 1726.1 852.611 1719.93 844.794 1714.8 839.653 C 1710.42 835.635 1706.24 831.357 1701.98 827.202 C 1696.49 821.995 1691.22 816.523 1685.85 811.187 L 1673.41 798.319 C 1684.33 783.161 1712.77 752.787 1727.85 742.286 z"/>
<path transform="translate(0,0)" fill="rgb(255,255,255)" d="M 1767.82 782.488 C 1774.45 787.95 1782.73 793.426 1783.76 802.688 C 1784.36 808.153 1780.44 812.921 1777.11 816.89 C 1769.21 826.329 1744.87 852.557 1733.26 854.707 C 1726.1 852.611 1719.93 844.794 1714.8 839.653 C 1734.13 821.496 1751.27 803.27 1767.82 782.488 z"/>
<path transform="translate(0,0)" fill="rgb(229,125,52)" d="M 1756.71 771.377 C 1760.37 774.978 1764.52 778.573 1767.82 782.488 C 1751.27 803.27 1734.13 821.496 1714.8 839.653 C 1710.42 835.635 1706.24 831.357 1701.98 827.202 C 1711.82 816.611 1721.87 806.197 1731.85 795.733 C 1737.59 789.71 1743.38 782.568 1749.97 777.512 C 1752.43 775.62 1754.54 773.602 1756.71 771.377 z"/>
<path transform="translate(0,0)" fill="rgb(229,125,52)" d="M 1727.85 742.286 C 1732.06 745.394 1736.48 749.446 1739.61 753.669 C 1723.06 773.912 1702.88 791.266 1685.85 811.187 L 1673.41 798.319 C 1684.33 783.161 1712.77 752.787 1727.85 742.286 z"/>
<path transform="translate(0,0)" fill="rgb(222,155,84)" d="M 1517.24 555.025 C 1526.75 562.017 1535.33 573.241 1542.68 582.456 C 1531.04 594.007 1519.19 605.415 1508.33 617.708 C 1498.96 609.432 1490.33 599.847 1481.52 590.949 C 1493.82 579.37 1505.73 567.389 1517.24 555.025 z"/>
<path transform="translate(0,0)" fill="rgb(47,57,115)" d="M 271.678 1159.21 C 279.277 1158.65 286.684 1158.19 294.266 1159.2 C 314.295 1161.85 331.868 1172.76 343.927 1188.85 C 360.908 1211.52 361.213 1234.79 357.441 1261.63 C 382.865 1280.36 409.372 1306.45 432.897 1327.83 L 543.516 1428.39 C 556.348 1440.29 564.821 1451.38 565.182 1469.6 C 565.459 1483.57 559.415 1496.78 549.7 1506.67 C 539.183 1517.39 524.561 1525.53 509.274 1525.4 C 480.799 1525.15 462.679 1497.72 444.907 1479.08 C 412.76 1444.58 380.311 1410.37 347.564 1376.43 C 330.496 1358.39 314.24 1338.81 295.824 1322.17 C 292.348 1323.46 288.771 1324.47 285.129 1325.17 C 265.39 1329.14 243.731 1325.21 227.02 1313.93 C 209.094 1301.88 196.772 1283.12 192.826 1261.88 C 188.806 1239.42 195.716 1219.47 208.385 1201.05 C 220.411 1210.92 246.394 1242.18 259.556 1244.46 C 262.963 1245.05 266.364 1244.54 269.21 1242.51 C 273.348 1239.54 276.147 1233.7 276.862 1228.76 C 278.685 1216.17 242.674 1187.44 234.018 1176.54 L 233.236 1175.54 C 246.242 1167.31 256.576 1162.05 271.678 1159.21 z"/>
<path transform="translate(0,0)" fill="rgb(255,255,255)" d="M 274.08 1183.2 C 285.745 1182.63 296.915 1183.53 307.555 1188.87 C 320.185 1195.11 329.71 1206.24 333.91 1219.68 C 340.226 1239.27 335.116 1256.84 325.888 1274.49 C 351.975 1300.7 375.795 1328.72 402.528 1354.39 C 418.994 1370.31 435.799 1385.87 452.932 1401.06 C 464.921 1411.86 477.366 1422.37 488.5 1434.05 C 481.661 1437.99 476.103 1443.04 473.79 1450.86 C 470.512 1461.94 475.325 1471.5 480.315 1481.08 C 464.426 1463.08 447.875 1445.82 431.248 1428.51 C 418.039 1413.62 403.766 1399.37 389.996 1384.99 L 300.525 1293.02 C 295.995 1295.65 291.27 1298.06 286.279 1299.69 C 273.579 1303.85 259.606 1303.7 247.647 1297.29 C 234.014 1289.99 222.606 1277.53 218.047 1262.59 C 216.304 1256.89 213.694 1248.93 216.615 1243.4 C 228.403 1256.61 239.976 1268.96 258.994 1270.28 C 269.674 1271.02 280.829 1266.99 288.729 1259.81 C 297.258 1252.05 302.83 1240.27 303.112 1228.72 C 303.62 1207.86 286.852 1196.71 274.08 1183.2 z"/>
<path transform="translate(0,0)" fill="rgb(255,255,255)" d="M 536.924 1457.59 C 539.157 1460.99 540.777 1464.31 541.246 1468.4 C 542.144 1476.22 539.419 1483.54 534.257 1489.4 C 528.286 1496.17 519.124 1500.9 510.015 1501.01 C 501.147 1501.12 496.054 1497.59 490.069 1491.52 C 488.636 1490.02 487.353 1488.43 486.039 1486.82 L 489.529 1488.77 C 495.117 1491.89 499.899 1494.11 506.432 1494.1 C 515.134 1494.1 523.142 1490.07 528.918 1483.67 C 536.117 1475.69 537.575 1467.85 536.924 1457.59 z"/>
<path transform="translate(0,0)" fill="rgb(255,255,255)" d="M 502.677 1453.5 C 505.883 1452.32 509.474 1452.97 512.062 1455.2 C 514.649 1457.43 515.826 1460.89 515.139 1464.23 C 514.451 1467.58 512.005 1470.29 508.748 1471.31 C 503.871 1472.85 498.658 1470.21 497.008 1465.37 C 495.359 1460.53 497.875 1455.26 502.677 1453.5 z"/>
</svg>